<svg xmlns="http://www.w3.org/2000/svg"  viewBox="0 0 48 48" width="96px" height="96px"><path d="M 24.015625 4.0019531 C 11.871625 4.0019531 2.015625 13.857953 2.015625 26.001953 C 2.015625 35.900125 8.5647983 44.274871 17.5625 47.035156 C 10.280025 47.105439 5.015625 47.286169 5.015625 47.501953 C 5.015625 47.777953 13.527625 48.003906 24.015625 48.003906 C 34.503625 48.003906 43.015625 47.777953 43.015625 47.501953 C 43.015625 47.286203 37.751368 47.105464 30.470703 47.035156 C 39.468329 44.274825 46.017578 35.900071 46.017578 26.001953 C 46.017578 13.857953 36.159625 4.0019531 24.015625 4.0019531 z M 16.017578 7.9941406 C 16.097078 7.9917656 16.164422 8.000125 16.232422 8.015625 C 16.768422 8.139625 17.106422 8.6778437 16.982422 9.2148438 C 16.905422 9.5508438 16.664641 9.8076094 16.181641 9.9746094 C 14.016641 10.591609 12.154047 11.320688 10.998047 12.679688 C 10.882047 12.822687 10.689047 12.894609 10.498047 12.849609 C 10.229047 12.788609 10.061094 12.51 10.121094 12.25 C 10.434094 10.891 12.841469 8.6081563 15.730469 8.0351562 C 15.847469 8.0091563 15.938078 7.9965156 16.017578 7.9941406 z M 11.998047 14.996094 L 20.998047 14.996094 L 20.998047 23.996094 L 17.863281 20.863281 C 16.697281 22.253281 15.998047 24.044094 15.998047 25.996094 C 15.998047 30.412094 19.584 33.996094 24 33.996094 C 28.414 33.996094 32.001953 30.412094 32.001953 25.996094 C 32.001953 24.197094 31.405438 22.537266 30.398438 21.197266 C 29.736438 20.314266 29.913875 19.061438 30.796875 18.398438 C 31.679875 17.736438 32.934656 17.913875 33.597656 18.796875 C 35.102656 20.800875 36.001953 23.297094 36.001953 25.996094 C 36.001953 32.621094 30.623 37.996094 24 37.996094 C 17.375 37.996094 11.998047 32.621094 11.998047 25.996094 C 11.998047 22.939094 13.144344 20.146297 15.027344 18.029297 L 11.998047 14.996094 z"/></svg>